HIERARCHY
ROOT Hips
{
	OFFSET 0.00000 0.00000 0.00000
	CHANNELS 6 Xposition Yposition Zposition Zrotation Yrotation Xrotation 
	JOINT LHipJoint
	{
		OFFSET 0 0 0
		CHANNELS 3 Zrotation Yrotation Xrotation
		JOINT LeftUpLeg
		{
			OFFSET 1.44361 -1.63093 0.70831
			CHANNELS 3 Zrotation Yrotation Xrotation
			JOINT LeftLeg
			{
				OFFSET 2.20103 -6.04728 0.00000
				CHANNELS 3 Zrotation Yrotation Xrotation
				JOINT LeftFoot
				{
					OFFSET 2.54154 -6.98283 0.00000
					CHANNELS 3 Zrotation Yrotation Xrotation
					JOINT LeftToeBase
					{
						OFFSET 0.05971 -0.16406 1.77582
						CHANNELS 3 Zrotation Yrotation Xrotation
						End Site
						{
							OFFSET 0.00000 -0.00000 0.90832
						}
					}
				}
			}
		}
	}
	JOINT RHipJoint
	{
		OFFSET 0 0 0
		CHANNELS 3 Zrotation Yrotation Xrotation
		JOINT RightUpLeg
		{
			OFFSET -1.65838 -1.63093 0.70830
			CHANNELS 3 Zrotation Yrotation Xrotation
			JOINT RightLeg
			{
				OFFSET -2.26926 -6.23475 0.00000
				CHANNELS 3 Zrotation Yrotation Xrotation
				JOINT RightFoot
				{
					OFFSET -2.34808 -6.45129 0.00000
					CHANNELS 3 Zrotation Yrotation Xrotation
					JOINT RightToeBase
					{
						OFFSET -0.18633 -0.51195 1.68539
						CHANNELS 3 Zrotation Yrotation Xrotation
						End Site
						{
							OFFSET -0.00000 -0.00000 0.88927
						}
					}
				}
			}
		}
	}
	JOINT LowerBack
	{
		OFFSET 0 0 0
		CHANNELS 3 Zrotation Yrotation Xrotation
		JOINT Spine
		{
			OFFSET -0.10393 2.01691 0.06920
			CHANNELS 3 Zrotation Yrotation Xrotation
			JOINT Spine1
			{
				OFFSET 0.04092 2.01302 -0.05283
				CHANNELS 3 Zrotation Yrotation Xrotation
				JOINT Neck
				{
					OFFSET 0 0 0
					CHANNELS 3 Zrotation Yrotation Xrotation
					JOINT Neck1
					{
						OFFSET -0.02870 1.58978 -0.03113
						CHANNELS 3 Zrotation Yrotation Xrotation
						JOINT Head
						{
							OFFSET 0.11532 1.54326 -0.29195
							CHANNELS 3 Zrotation Yrotation Xrotation
							End Site
							{
								OFFSET 0.04056 1.59999 -0.09535
							}
						}
					}
				}
				JOINT LeftShoulder
				{
					OFFSET 0 0 0
					CHANNELS 3 Zrotation Yrotation Xrotation
					JOINT LeftArm
					{
						OFFSET 3.30641 1.15764 0.01104
						CHANNELS 3 Zrotation Yrotation Xrotation
						JOINT LeftForeArm
						{
							OFFSET 4.63208 -0.00000 0.00000
							CHANNELS 3 Zrotation Yrotation Xrotation
							JOINT LeftHand
							{
								OFFSET 3.41924 -0.00000 -0.00000
								CHANNELS 3 Zrotation Yrotation Xrotation
								JOINT LeftFingerBase
								{
									OFFSET 0 0 0
									CHANNELS 3 Zrotation Yrotation Xrotation
									JOINT LeftHandIndex1
									{
										OFFSET 0.62537 -0.00000 -0.00000
										CHANNELS 3 Zrotation Yrotation Xrotation
										End Site
										{
											OFFSET 0.50419 -0.00000 -0.00000
										}
									}
								}
								JOINT LThumb
								{
									OFFSET 0 0 0
									CHANNELS 3 Zrotation Yrotation Xrotation
									End Site
									{
										OFFSET 0.51189 -0.00000 0.51189
									}
								}
							}
						}
					}
				}
				JOINT RightShoulder
				{
					OFFSET 0 0 0
					CHANNELS 3 Zrotation Yrotation Xrotation
					JOINT RightArm
					{
						OFFSET -3.78081 1.02180 -0.16609
						CHANNELS 3 Zrotation Yrotation Xrotation
						JOINT RightForeArm
						{
							OFFSET -4.40640 -0.00000 -0.00000
							CHANNELS 3 Zrotation Yrotation Xrotation
							JOINT RightHand
							{
								OFFSET -3.44675 -0.00000 0.00000
								CHANNELS 3 Zrotation Yrotation Xrotation
								JOINT RightFingerBase
								{
									OFFSET 0 0 0
									CHANNELS 3 Zrotation Yrotation Xrotation
									JOINT RightHandIndex1
									{
										OFFSET -0.51367 -0.00000 -0.00000
										CHANNELS 3 Zrotation Yrotation Xrotation
										End Site
										{
											OFFSET -0.41414 -0.00000 -0.00000
										}
									}
								}
								JOINT RThumb
								{
									OFFSET 0 0 0
									CHANNELS 3 Zrotation Yrotation Xrotation
									End Site
									{
										OFFSET -0.42046 -0.00000 0.42046
									}
								}
							}
						}
					}
				}
			}
		}
	}
}
MOTION
Frames: 6
Frame Time: .0083333
10.9639 15.7668 11.2606 -2.3217 -75.0076 27.1061 0.0000 0.0000 0.0000 -4.3621 -12.1144 -51.8835 4.7135 13.0537 39.5698 0.7422 3.5391 -17.9338 12.1738 -18.4631 -66.5386 0.0000 0.0000 0.0000 -13.4560 16.3923 -6.7285 -0.1693 -2.6508 7.3081 6.4721 -40.2728 -11.3906 -1.4794 -7.6851 21.7616 -12.7034 -1.2622 9.7367 -0.0867 -2.9706 2.9634 7.3727 -1.5450 -1.6809 -6.0086 -11.4313 2.8443 15.4382 -14.5289 -14.6625 6.0257 -7.9740 -3.1570 -0.0000 0.0000 0.0000 -90.7702 -18.3856 82.0371 105.6193 -59.0578 -73.4840 -0.0000 -0.0000 12.2989 61.2037 -20.8828 -32.9632 -7.1250 0.0000 -0.0000 19.0836 -6.5785 -22.3547 -0.0000 0.0000 0.0000 80.3642 -4.9663 -29.4415 -61.9486 56.8072 -35.9671 0.0000 -0.0000 -40.0057 -16.7770 -22.3208 6.5319 7.1250 -0.0000 -0.0000 12.5230 -52.7572 -2.4209
10.9515 15.7676 11.2433 -1.8766 -75.1751 26.7583 0.0000 0.0000 0.0000 -4.4552 -12.0587 -51.9722 4.7332 13.0769 39.6570 0.7282 3.6502 -17.8496 12.1355 -18.4473 -66.4175 0.0000 0.0000 0.0000 -13.6885 16.3050 -6.9110 -0.1689 -2.6479 7.3000 6.4241 -40.3792 -9.7398 -1.1235 -6.7328 18.9261 -12.9396 -1.3801 9.9159 -0.0262 -3.1709 3.0262 7.5949 -1.6511 -1.6503 -5.6317 -12.5610 2.7374 15.8050 -16.0374 -14.3995 6.0204 -8.7599 -2.9000 0.0000 0.0000 0.0000 -90.4507 -18.1649 81.4672 106.5238 -58.9428 -74.2592 -0.0000 -0.0000 12.2159 61.0737 -20.9626 -32.9181 -7.1250 0.0000 -0.0000 18.9913 -6.5967 -22.2393 0.0000 0.0000 0.0000 80.0698 -4.6842 -29.5668 -61.4718 56.6895 -35.5684 0.0000 -0.0000 -39.8124 -15.8820 -22.0856 6.1061 7.1250 -0.0000 -0.0000 13.3069 -52.3660 -2.4480
10.9388 15.7674 11.2292 -1.4046 -75.3826 26.3219 0.0000 0.0000 0.0000 -4.5940 -11.9367 -52.0003 4.7524 13.0994 39.7416 0.7251 3.7066 -17.8501 12.1010 -18.4330 -66.3087 0.0000 0.0000 0.0000 -13.9191 16.1300 -7.0761 -0.1686 -2.6456 7.2935 6.2315 -40.2564 -7.5499 -0.6762 -5.2583 14.6467 -13.2535 -1.5215 10.1374 0.1031 -3.4147 3.0836 7.9417 -1.7789 -1.6265 -6.0767 -13.4549 2.3004 16.7176 -17.2537 -13.7644 6.2235 -9.3696 -2.3774 0.0000 -0.0000 0.0000 -90.3186 -17.9096 80.8247 107.2365 -58.8471 -74.8694 -0.0000 -0.0000 12.1654 61.0460 -20.7521 -32.6367 -7.1250 0.0000 -0.0000 19.0378 -6.2722 -22.2039 0.0000 -0.0000 0.0000 79.5873 -4.4122 -29.4977 -61.1285 56.6032 -35.2817 0.0000 -0.0000 -39.8695 -15.4108 -21.9298 5.8777 7.1250 -0.0000 -0.0000 13.7029 -52.1300 -2.4430
10.9277 15.7666 11.2177 -1.2449 -75.5695 26.1954 0.0000 0.0000 0.0000 -4.5971 -11.8636 -52.0447 4.7779 13.1293 39.8543 0.7268 3.7912 -17.9191 12.0832 -18.4256 -66.2524 0.0000 0.0000 0.0000 -14.0520 16.1259 -7.1734 -0.1698 -2.6545 7.3184 6.0784 -39.8887 -7.2983 -0.5834 -4.8906 13.5968 -13.4783 -1.7353 10.3437 0.2632 -3.7443 3.0965 8.2807 -1.9452 -1.6212 -6.8870 -13.8709 2.1224 17.9007 -17.8111 -13.5154 6.6062 -9.6687 -2.0087 -0.0000 0.0000 0.0000 -90.1831 -17.6051 80.0227 107.9580 -58.7457 -75.4865 -0.0000 -0.0000 12.0223 61.1779 -20.6801 -32.6919 -7.1250 0.0000 -0.0000 19.1288 -6.2658 -22.3207 -0.0000 0.0000 0.0000 79.0518 -4.1612 -29.2236 -60.9357 56.5542 -35.1208 0.0000 -0.0000 -40.1153 -15.1168 -22.4079 5.8793 7.1250 -0.0000 -0.0000 14.1979 -52.5508 -2.6822
10.9165 15.7653 11.2052 -1.2081 -75.7488 26.2338 0.0000 0.0000 0.0000 -4.5506 -11.8175 -52.0545 4.7790 13.1305 39.8589 0.7173 3.9687 -17.9241 12.0605 -18.4161 -66.1804 0.0000 0.0000 0.0000 -14.1351 16.1945 -7.2396 -0.1693 -2.6506 7.3074 6.0413 -39.7024 -7.7227 -0.6257 -5.0617 14.0846 -13.5454 -1.9115 10.4392 0.2951 -3.9970 3.0963 8.3799 -2.0721 -1.6056 -7.9060 -14.0795 2.7270 19.2483 -18.0639 -13.9482 7.1856 -9.8679 -1.9559 0.0000 0.0000 0.0000 -89.7671 -17.2775 79.3319 108.8348 -58.6162 -76.2356 -0.0000 -0.0000 11.8267 61.0510 -20.8063 -32.7072 -7.1250 0.0000 -0.0000 19.0247 -6.3544 -22.2113 0.0000 0.0000 0.0000 78.8587 -3.9453 -29.1680 -60.7586 56.5087 -34.9731 0.0000 -0.0000 -40.0986 -15.0370 -22.9458 5.9790 7.1250 -0.0000 -0.0000 14.5183 -53.0658 -2.9299
10.9024 15.7649 11.1907 -0.9671 -75.9855 26.0001 0.0000 0.0000 0.0000 -4.6384 -11.6570 -51.9010 4.7485 13.0948 39.7244 0.7047 4.0997 -17.8692 12.0483 -18.4110 -66.1419 0.0000 0.0000 0.0000 -14.2316 16.2781 -7.1976 -0.1673 -2.6352 7.2648 5.9924 -39.4434 -8.3913 -0.7385 -5.4899 15.3113 -13.6628 -1.9837 10.5487 0.2659 -4.1209 3.1413 8.4297 -2.1388 -1.5808 -8.0490 -14.2103 2.7168 19.9132 -18.2148 -14.0284 7.3877 -9.9842 -1.8685 -0.0000 0.0000 0.0000 -89.3410 -16.9492 78.8183 109.6819 -58.4845 -76.9583 -0.0000 -0.0000 11.7318 60.8228 -20.8388 -32.5018 -7.1250 0.0000 -0.0000 18.8939 -6.2330 -22.0049 -0.0000 0.0000 0.0000 78.8408 -3.6925 -29.2913 -60.5393 56.4519 -34.7902 0.0000 -0.0000 -39.9676 -15.5104 -22.9318 6.1715 7.1250 -0.0000 -0.0000 14.0439 -53.1368 -2.8557
